Also Known As:"Ninja's Creed" - USA (DVD title)

When a female assassin is sent to the US to kill the last living heir to the modern day Himalayan Kingdom, royal solider is also sent to protect her. When he is face to face with the assassin his duty to the Kingdom becomes compromised. As they battle, secrets are uncovered and the line between good and evil is erased. Only one mission can be completed and only one person can survive.
 
http://www.imdb.com/title/tt0421237/

Subtitles (srt) : Dutch.

Covers included.

Princess (Lalaine) komt in aanraking met een buitenlandse jongen. Ze wordt verliefd op hem en dit blijkt bepaald geen toeval te zijn, want Princess blijkt de laatste familieverwante te zijn van de koninklijke familie uit Samarza. De jongen is gestuurd om haar te beschermen, want een groep moordenaars is er op uit om Princess te vermoorden.
 
http://www.moviemeter.nl/film/36112

Ondertitels (srt) : Nederlands.

Hoesjes bijgevoegd.

General
Complete name                    : Royal Kill-AC3-XviD-DVDRip[Eng]2009 2Lions-Team\Royal Kill-AC3-XviD-DVDRip[Eng]2009 2Lions-Team.avi
Format                           : AVI
Format/Info                      : Audio Video Interleave
File size                        : 1.36 GiB
Duration                         : 1h 29mn
Overall bit rate                 : 2 173 Kbps
Writing application              : VirtualDubMod 1.5.4.1 (build 2178/release)
Writing library                  : VirtualDubMod build 2178/release
Source                           : Ninjas Creed 2009 R1 NTSC DVDR-SADPANDA

Video
ID                               : 0
Format                           : MPEG-4 Visual
Format profile                   : Simple@L3
Format settings, BVOP            : No
Format settings, QPel            : No
Format settings, GMC             : No warppoints
Format settings, Matrix          : Default (H.263)
Codec ID                         : XVID
Codec ID/Hint                    : XviD
Duration                         : 1h 29mn
Bit rate                         : 1 716 Kbps
Width                            : 720 pixels
Height                           : 400 pixels
Display aspect ratio             : 16:9
Frame rate                       : 23.976 fps
Resolution                       : 8 bits
Colorimetry                      : 4:2:0
Scan type                        : Progressive
Bits/(Pixel*Frame)               : 0.248
Stream size                      : 1.08 GiB (79%)
Writing library                  : XviD 1.1.2 (UTC 2006-11-01)

Audio
ID                               : 1
Format                           : AC-3
Format/Info                      : Audio Coding 3
Format_Settings_ModeExtension    : CM (complete main)
Codec ID                         : 2000
Duration                         : 1h 29mn
Bit rate mode                    : Constant
Bit rate                         : 448 Kbps
Channel(s)                       : 6 channels
Channel positions                : Front: L C R, Side: L R, LFE
Sampling rate                    : 48.0 KHz
Stream size                      : 288 MiB (21%)
Alignment                        : Split accross interleaves
Interleave, duration             : 42 ms (1.00 video frame)
Interleave, preload duration     : 500 ms

Thanks to Simply ReleaseS for the source.

Brought to you by 
2Lions Team

meer zien??
                   
Kom dan eens kijken op ons NIEUWE forum 
            
http://www.2lions-site.nl/

2Lions the site to be for all your Dutch MOVIES and more

******************************************

DON T HIT AND RUN Niet gelijk afhaken als de FILM binnen is blijf seeden. 

Don`t quit after you finished the download, but keep seeding

There are fake torrents from uploaders who use our team name.
Those are not ours, or members from our team.
We 2Lions-Team are not responsible for the fake posts on our name

Wij 2Lions-Team zijn niet verantwoordelijk voor die zieke FAKE posten die op onze naam worden gedaan

Please check our site !!!

to the fakers , get a life !!!